<!-- icon666.com - MILLIONS vector ICONS FREE --><svg viewBox="0 -41 492 492" xmlns="http://www.w3.org/2000/svg"><path d="m471.0625 224.078125-56.261719-52.230469c-12.019531-11.207031-27.832031-17.457031-44.265625-17.503906h-30.535156v-6.953125c.054688-12.183594-4.746094-23.882813-13.335938-32.523437-8.585937-8.640626-20.261718-13.503907-32.445312-13.523438h-83.21875v-45.554688c-.058594-3.074218-1.84375-5.851562-4.617188-7.179687l-97.371093-47.792969c-2.234375-1.089844-4.847657-1.089844-7.082031 0l-97.378907 47.65625c-2.757812 1.335938-4.5234372 4.117188-4.550781 7.183594v88.386719c0 25.410156 15.738281 55.371093 36.742188 69.691406l3.257812 2.296875v144.511719c0 4.417969 3.890625 7.800781 8.308594 7.800781h30.992187c3.3125 23.375 22.773438 41.089844 46.355469 42.195312.761719.03125 1.519531.097657 2.277344.097657 12.242187-.007813 24.039062-4.617188 33.042968-12.914063 8.386719-7.722656 13.859376-18.097656 15.496094-29.378906h179.882813c3.449219 24.183594 24.15625 42.148438 48.582031 42.148438s45.136719-17.964844 48.582031-42.148438h30.378907c2.113281.050781 4.15625-.746094 5.675781-2.210938 1.523437-1.464843 2.394531-3.476562 2.425781-5.589843v-88.671875c-.042969-18.148438-7.628906-35.460938-20.9375-47.792969zm-10.921875 11.675781c.933594.804688 1.8125 1.671875 2.636719 2.589844h-60.046875c-.855469.074219-1.617188-.539062-1.730469-1.386719v-55.496093c.976562.703124 1.910156 1.460937 2.800781 2.273437zm-444.140625-91.710937v-83.398438l89.5-43.738281 89.5 43.863281v83.273438c0 19.914062-13.539062 45.25-30.007812 56.472656l-59.511719 40.546875-59.535157-40.542969c-16.464843-11.226562-29.945312-36.558593-29.945312-56.476562zm84.746094 113.3125c1.355468.90625 2.953125 1.390625 4.582031 1.390625 1.621094 0 3.207031-.484375 4.550781-1.390625l64.109375-43.609375c21.011719-14.328125 37.011719-44.289063 37.011719-69.703125v-26.699219h83.21875c7.941406.011719 15.550781 3.191406 21.140625 8.832031s8.699219 13.273438 8.640625 21.214844v111.953125h-268v-32.398438zm60.183594 105.753906c-.714844 15.765625-12.464844 28.828125-28.070313 31.203125-15.601563 2.375-30.707031-6.601562-36.078125-21.441406-5.375-14.839844.484375-31.40625 13.988281-39.570313 13.503907-8.164062 30.898438-5.652343 41.539063 6 5.9375 6.46875 9.042968 15.039063 8.621094 23.808594zm-30.824219-50.53125c-12.992188-.660156-25.714844 3.910156-35.320313 12.6875-7.796875 7.1875-13.097656 16.671875-15.140625 27.078125h-23.644531v-77h268v77h-147.875c-1.652344-8.953125-5.8125-17.253906-12-23.929688-8.765625-9.617187-21.019531-15.320312-34.019531-15.835937zm274.832031 82.113281c-18.269531 0-33.082031-14.8125-33.082031-33.082031s14.8125-33.078125 33.082031-33.078125 33.082031 14.808594 33.082031 33.078125c-.019531 18.261719-14.820312 33.0625-33.082031 33.082031zm71.0625-42.347656h-22.835938c-4.355468-23.203125-24.617187-40.015625-48.226562-40.015625s-43.871094 16.8125-48.226562 40.015625h-16.710938v-182h30.53125c4.933594.058594 9.824219.9375 14.46875 2.601562v64.015626c.125 9.683593 8.042969 17.449218 17.730469 17.382812h69.96875c2.101562 5.609375 3.21875 11.539062 3.300781 17.527344zm0 0"></path><path d="m87.566406 159.792969c1.480469 1.566406 3.515625 2.480469 5.664063 2.550781h.019531c2.144531-.066406 4.175781-.972656 5.65625-2.519531l49.230469-49.320313c3.140625-3.125 3.15625-8.203125.035156-11.347656-3.125-3.144531-8.207031-3.15625-11.351563-.035156l-43.542968 43.535156-19.257813-19.453125c-3.105469-3.140625-8.171875-3.164063-11.3125-.058594-3.140625 3.144531-3.164062 8.230469-.054687 11.402344zm0 0"></path></svg>