<!-- icon666.com - MILLIONS vector ICONS FREE --><svg version="1.1" id="Capa_1" xmlns="http://www.w3.org/2000/svg" xmlns:xlink="http://www.w3.org/1999/xlink" x="0px" y="0px" viewBox="0 0 512.003 512.003" style="enable-background:new 0 0 512.003 512.003;" xml:space="preserve"><g><g><path d="M64.001,192V10.667C64.001,4.776,59.225,0,53.334,0H10.668C4.777,0,0.001,4.776,0.001,10.667v490.667 c0,5.89,4.776,10.666,10.667,10.666h42.667c5.89,0,10.666-4.776,10.666-10.667V256H42.668v234.667H21.334V21.333h21.333V192 H64.001z"></path></g></g><g><g><path d="M501.334,0h-42.667c-5.89,0-10.666,4.776-10.666,10.667V192h21.333V21.333h21.333v469.333h-21.333V256h-21.333v245.333 c0,5.891,4.776,10.667,10.667,10.667h42.667c5.891,0,10.667-4.776,10.667-10.667V10.667C512.001,4.776,507.225,0,501.334,0z"></path></g></g><g><g><path d="M245.334,384h-128c-11.782,0-21.333,9.551-21.333,21.333v96h21.333v-96h128v96h21.333v-96 C266.668,393.551,257.116,384,245.334,384z"></path></g></g><g><g><path d="M192.001,416v21.333h-21.333V416h-21.333v32c0,5.891,4.776,10.667,10.667,10.667h42.667 c5.891,0,10.667-4.776,10.667-10.667v-32H192.001z"></path></g></g><g><g><path d="M330.668,277.333h-128c-11.782,0-21.333,9.551-21.333,21.333v64h21.333v-64h128v96h21.333v-96 C352.001,286.885,342.45,277.333,330.668,277.333z"></path></g></g><g><g><path d="M277.334,309.333v21.333h-21.333v-21.333h-21.333v32c0,5.891,4.776,10.667,10.667,10.667h42.666 c5.891,0,10.667-4.776,10.667-10.667v-32H277.334z"></path></g></g><g><g><path d="M394.668,384h-128c-11.782,0-21.333,9.551-21.333,21.333v96h21.333v-96h128v96h21.333v-96 C416.001,393.551,406.45,384,394.668,384z"></path></g></g><g><g><path d="M341.334,416v21.333h-21.333V416h-21.333v32c0,5.891,4.776,10.667,10.667,10.667h42.666 c5.891,0,10.667-4.776,10.667-10.667v-32H341.334z"></path></g></g><g><g><rect x="42.668" y="490.67" width="426.67" height="21.333"></rect></g></g><g><g><path d="M245.334,106.667h-128c-11.782,0-21.333,9.551-21.333,21.333v96h21.333v-96h128v96h21.333v-96 C266.668,116.218,257.116,106.667,245.334,106.667z"></path></g></g><g><g><path d="M192.001,138.667V160h-21.333v-21.333h-21.333v32c0,5.891,4.776,10.667,10.667,10.667h42.667 c5.891,0,10.667-4.776,10.667-10.667v-32H192.001z"></path></g></g><g><g><path d="M330.668,0h-128c-11.782,0-21.333,9.551-21.333,21.333v96h21.333v-96h128v64h21.333v-64C352.001,9.551,342.45,0,330.668,0 z"></path></g></g><g><g><path d="M277.334,32v21.333h-21.333V32h-21.333v32c0,5.891,4.776,10.667,10.667,10.667h42.666c5.891,0,10.667-4.776,10.667-10.667 V32H277.334z"></path></g></g><g><g><path d="M394.668,106.667h-128c-11.782,0-21.333,9.551-21.333,21.333v96h21.333v-96h128v96h21.333v-96 C416.001,116.218,406.45,106.667,394.668,106.667z"></path></g></g><g><g><path d="M341.334,138.667V160h-21.333v-21.333h-21.333v32c0,5.891,4.776,10.667,10.667,10.667h42.666 c5.891,0,10.667-4.776,10.667-10.667v-32H341.334z"></path></g></g><g><g><rect x="42.668" y="213.33" width="426.67" height="21.333"></rect></g></g></svg>